HIERARCHY
ROOT Hips
{
  OFFSET 46.5602 84.3701 33.6707
  CHANNELS 6 Xposition Yposition Zposition Zrotation Xrotation Yrotation
  JOINT spine
  {
    OFFSET 0 6.24479 0.359107
    CHANNELS 3 Zrotation Xrotation Yrotation
    JOINT spine1
    {
      OFFSET 0 9.06941 0
      CHANNELS 3 Zrotation Xrotation Yrotation
      JOINT spine2
      {
        OFFSET 0 8.69014 0
        CHANNELS 3 Zrotation Xrotation Yrotation
        JOINT Neck
        {
          OFFSET 0 22.3112 1.06372
          CHANNELS 3 Zrotation Xrotation Yrotation
          JOINT Head
          {
            OFFSET 0 6.74081 0
            CHANNELS 3 Zrotation Xrotation Yrotation
            End Site
            {
              OFFSET 0 16.3165 -5.38097
            }
          }
        }
        JOINT RightShoulder
        {
          OFFSET -3.65916 9.38468 -0.509514
          CHANNELS 3 Zrotation Xrotation Yrotation
          JOINT RightArm
          {
            OFFSET 0 12.3089 0
            CHANNELS 3 Zrotation Xrotation Yrotation
            JOINT RightArmRoll
            {
              OFFSET 0 6.21375 0
              CHANNELS 3 Zrotation Xrotation Yrotation
              JOINT RightForeArm
              {
                OFFSET 0 18.0985 0
                CHANNELS 3 Zrotation Xrotation Yrotation
                JOINT RightForeArmRoll
                {
                  OFFSET 0 6.97279 0
                  CHANNELS 3 Zrotation Xrotation Yrotation
                  JOINT RightHand
                  {
                    OFFSET 0 13.9929 0
                    CHANNELS 3 Zrotation Xrotation Yrotation
                    End Site
                    {
                      OFFSET 0 0 0
                    }
                  }
                }
              }
            }
          }
        }
        JOINT LeftShoulder
        {
          OFFSET 3.65916 9.38468 -0.509514
          CHANNELS 3 Zrotation Xrotation Yrotation
          JOINT LeftArm
          {
            OFFSET 0 12.3089 0
            CHANNELS 3 Zrotation Xrotation Yrotation
            JOINT LeftArmRoll
            {
              OFFSET 0 6.21375 0
              CHANNELS 3 Zrotation Xrotation Yrotation
              JOINT LeftForeArm
              {
                OFFSET 0 18.0985 0
                CHANNELS 3 Zrotation Xrotation Yrotation
                JOINT LeftForeArmRoll
                {
                  OFFSET 0 6.97279 0
                  CHANNELS 3 Zrotation Xrotation Yrotation
                  JOINT LeftHand
                  {
                    OFFSET 0 13.9929 0
                    CHANNELS 3 Zrotation Xrotation Yrotation
                    End Site
                    {
                      OFFSET 0 0 0
                    }
                  }
                }
              }
            }
          }
        }
      }
    }
  }
  JOINT RightUpLeg
  {
    OFFSET -5.53515 -1.015 -0.851454
    CHANNELS 3 Zrotation Xrotation Yrotation
    JOINT RightUpLegRoll
    {
      OFFSET 0 16.4075 0
      CHANNELS 3 Zrotation Xrotation Yrotation
      JOINT RightLeg
      {
        OFFSET 0 -20.3181 0
        CHANNELS 3 Zrotation Xrotation Yrotation
        JOINT RightLegRoll
        {
          OFFSET 0 20.3846 0
          CHANNELS 3 Zrotation Xrotation Yrotation
          JOINT RightFoot
          {
            OFFSET 0 16.9668 0
            CHANNELS 3 Zrotation Xrotation Yrotation
            JOINT RightToeBase
            {
              OFFSET 0 14.1834 0
              CHANNELS 3 Zrotation Xrotation Yrotation
              End Site
              {
                OFFSET 0.0060118 6.8689 -0.791746
              }
            }
          }
        }
      }
    }
  }
  JOINT LeftUpLeg
  {
    OFFSET 5.53515 -1.015 -0.851454
    CHANNELS 3 Zrotation Xrotation Yrotation
    JOINT LeftUpLegRoll
    {
      OFFSET 0 16.4076 0
      CHANNELS 3 Zrotation Xrotation Yrotation
      JOINT LeftLeg
      {
        OFFSET 0 20.3181 0
        CHANNELS 3 Zrotation Xrotation Yrotation
        JOINT LeftLegRoll
        {
          OFFSET 0 20.5731 0
          CHANNELS 3 Zrotation Xrotation Yrotation
          JOINT LeftFoot
          {
            OFFSET 0 16.7783 0
            CHANNELS 3 Zrotation Xrotation Yrotation
            JOINT LeftToeBase
            {
              OFFSET 0 14.1834 0
              CHANNELS 3 Zrotation Xrotation Yrotation
              End Site
              {
                OFFSET -0.0269423 6.8689 -0.791746
              }
            }
          }
        }
      }
    }
  }
}
MOTION
Frames: 8
Frame Time: 0.00208333
48.2896 49.4855 -7.00361 0.57751 -9.39246 -0.688039 -0.0210725 2.50677 -0.402575 -0.0373477 9.01582 -0.80165 -0.0276892 10.6609 -0.802766 -4.90214 3.11138 2.50941 -0.535867 13.5105 1.34857 60.5472 -5.33533 -3.37367 124.39 39.4179 -41.7369 -4.5522e-006 1.8804e-006 -7.80956e-006 26.5098 53.2271 -15.4467 1.198e-005 -1.31451e-005 -3 8.02892 -4.95091 0.697384 -67.8179 -9.12749 5.78743 -108.812 39.0275 22.1709 1.20944e-006 4.3584e-007 -2.6703e-006 -21.2343 51.442 12.5305 5.79461e-006 1.63685e-005 2.99999 -8.02884 -4.95102 -0.69751 -155.509 77.4232 -27.1267 180 1.52575e-005 179.262 -159.422 77.9666 161.64 1.83986e-006 -6.62697e-007 0.661095 -10.0157 61.5444 16.0331 8.13459 25.2328 -3.48692 -172.978 79.1452 -4.1537 4.57705e-006 1.05463e-005 -1.09489 52.1682 -84.4071 50.2972 -8.75397e-006 -6.43419e-007 -1.27157 14.8102 65.7482 -17.9382 -8.13282 25.2329 3.48617 
48.2791 49.4721 -7.00631 0.576771 -9.35283 -0.693131 -0.018999 2.50366 -0.401441 -0.0320464 9.0088 -0.79989 -0.0223935 10.6538 -0.801092 -4.94121 3.12691 2.51235 -0.522137 13.5027 1.34075 60.4706 -5.34192 -3.37311 124.483 39.3787 -41.7533 -4.5522e-006 1.8804e-006 -7.80956e-006 26.4982 53.2486 -15.4504 1.198e-005 -1.31451e-005 -3 8.02892 -4.95091 0.697384 -67.8194 -9.10622 5.77619 -108.801 39.0053 22.1462 1.20944e-006 4.3584e-007 -2.6703e-006 -21.2301 51.4293 12.5249 5.79461e-006 1.63685e-005 2.99999 -8.02884 -4.95102 -0.69751 -155.386 77.4567 -27.2535 180 1.52575e-005 179.262 -159.418 77.9691 161.637 1.83986e-006 -6.62697e-007 0.661257 -10.0217 61.5475 16.0338 8.13459 25.2328 -3.48692 -172.923 79.1873 -4.20677 4.57705e-006 1.05463e-005 -1.09489 52.1759 -84.4121 50.3064 -8.75397e-006 -6.43419e-007 -1.27233 14.817 65.7514 -17.9409 -8.13282 25.2329 3.48617 
48.2889 49.4672 -6.99385 0.576241 -9.31326 -0.698203 -0.0170159 2.50047 -0.400351 -0.0268817 9.00158 -0.79821 -0.0172339 10.6466 -0.799495 -4.98012 3.14286 2.51523 -0.508489 13.4951 1.3329 60.3948 -5.34768 -3.37207 124.575 39.3392 -41.7696 -4.5522e-006 1.8804e-006 -7.80956e-006 26.4872 53.2703 -15.4544 1.198e-005 -1.31451e-005 -3 8.02892 -4.95091 0.697384 -67.8206 -9.08446 5.76469 -108.789 38.982 22.1201 1.20944e-006 4.3584e-007 -2.6703e-006 -21.2254 51.4168 12.5191 5.79461e-006 1.63685e-005 2.99999 -8.02884 -4.95102 -0.69751 -155.263 77.4903 -27.379 180 1.52575e-005 179.262 -159.415 77.9716 161.635 1.83986e-006 -6.62697e-007 0.661488 -10.0282 61.5511 16.0346 8.13459 25.2328 -3.48692 -172.867 79.2295 -4.26018 4.57705e-006 1.05463e-005 -1.09489 52.1819 -84.417 50.314 -8.75397e-006 -6.43419e-007 -1.27309 14.8237 65.7544 -17.9434 -8.13282 25.2329 3.48617 
48.2835 49.4666 -6.99376 0.575859 -9.27373 -0.703261 -0.015096 2.49724 -0.399293 -0.0218125 8.99423 -0.796585 -0.0121694 10.6393 -0.797951 -5.01891 3.1591 2.51808 -0.494898 13.4877 1.32503 60.3195 -5.35285 -3.37068 124.666 39.2993 -41.7859 -4.5522e-006 1.8804e-006 -7.80956e-006 26.4766 53.292 -15.4586 1.198e-005 -1.31451e-005 -3 8.02892 -4.95091 0.697384 -67.8219 -9.06234 5.75301 -108.777 38.9579 22.0931 1.20944e-006 4.3584e-007 -2.6703e-006 -21.2205 51.4044 12.5131 5.79461e-006 1.63685e-005 2.99999 -8.02884 -4.95102 -0.69751 -155.141 77.5241 -27.5038 180 1.52575e-005 179.262 -159.413 77.974 161.633 1.83986e-006 -6.62697e-007 0.661768 -10.0351 61.555 16.0355 8.13459 25.2328 -3.48692 -172.812 79.2717 -4.31396 4.57705e-006 1.05463e-005 -1.09489 52.187 -84.4219 50.3206 -8.75397e-006 -6.43419e-007 -1.27384 14.8304 65.7573 -17.9459 -8.13282 25.2329 3.48617 
48.2839 49.4659 -6.99488 0.575564 -9.23423 -0.708311 -0.0132121 2.49398 -0.398253 -0.0167977 8.98679 -0.794992 -0.00715913 10.6318 -0.796438 -5.05763 3.17552 2.52089 -0.48134 13.4803 1.31714 60.2446 -5.35769 -3.36909 124.756 39.2593 -41.8021 -4.5522e-006 1.8804e-006 -7.80956e-006 26.4662 53.3138 -15.4629 1.198e-005 -1.31451e-005 -3 8.02892 -4.95091 0.697384 -67.823 -9.04003 5.74123 -108.765 38.9334 22.0654 1.20944e-006 4.3584e-007 -2.6703e-006 -21.2154 51.392 12.5072 5.79461e-006 1.63685e-005 2.99999 -8.02884 -4.95102 -0.69751 -155.019 77.5579 -27.6284 180 1.52575e-005 179.262 -159.412 77.9765 161.632 1.83986e-006 -6.62697e-007 0.662075 -10.0422 61.559 16.0365 8.13459 25.2328 -3.48692 -172.755 79.3139 -4.36813 4.57705e-006 1.05463e-005 -1.09489 52.1914 -84.4268 50.3266 -8.75397e-006 -6.43419e-007 -1.27459 14.837 65.7602 -17.9484 -8.13282 25.2329 3.48617 
48.284 49.4633 -6.98917 0.575296 -9.19473 -0.713359 -0.0113371 2.49071 -0.397216 -0.0117962 8.97934 -0.793406 -0.00216207 10.6244 -0.794933 -5.09634 3.19197 2.52371 -0.467793 13.4729 1.30925 60.1697 -5.36245 -3.36745 124.846 39.2193 -41.8184 -4.5522e-006 1.8804e-006 -7.80956e-006 26.4558 53.3356 -15.4672 1.198e-005 -1.31451e-005 -3 8.02892 -4.95091 0.697384 -67.8241 -9.01767 5.72942 -108.752 38.9088 22.0377 1.20944e-006 4.3584e-007 -2.6703e-006 -21.2103 51.3796 12.5012 5.79461e-006 1.63685e-005 2.99999 -8.02884 -4.95102 -0.69751 -154.896 77.5917 -27.7535 180 1.52575e-005 179.262 -159.41 77.9789 161.631 1.83986e-006 -6.62697e-007 0.662389 -10.0493 61.5631 16.0375 8.13459 25.2328 -3.48692 -172.699 79.3562 -4.42273 4.57705e-006 1.05463e-005 -1.09489 52.1956 -84.4317 50.3324 -8.75397e-006 -6.43419e-007 -1.27534 14.8436 65.763 -17.9508 -8.13282 25.2329 3.48617 
48.2763 49.4801 -7.03535 0.574995 -9.15522 -0.718409 -0.00944397 2.48745 -0.396171 -0.0067668 8.97193 -0.791805 0.00286268 10.617 -0.793413 -5.13508 3.20834 2.52653 -0.454232 13.4655 1.30137 60.0947 -5.36738 -3.36592 124.937 39.1794 -41.8346 -4.5522e-006 1.8804e-006 -7.80956e-006 26.4454 53.3573 -15.4716 1.198e-005 -1.31451e-005 -3 8.02892 -4.95091 0.697384 -67.8253 -8.9954 5.71766 -108.74 38.8844 22.0103 1.20944e-006 4.3584e-007 -2.6703e-006 -21.2053 51.3672 12.4953 5.79461e-006 1.63685e-005 2.99999 -8.02884 -4.95102 -0.69751 -154.773 77.6254 -27.8797 180 1.52575e-005 179.262 -159.409 77.9813 161.63 1.83986e-006 -6.62697e-007 0.66269 -10.0563 61.5672 16.0384 8.13459 25.2328 -3.48692 -172.642 79.3984 -4.47777 4.57705e-006 1.05463e-005 -1.09489 52.2001 -84.4365 50.3385 -8.75397e-006 -6.43419e-007 -1.27609 14.8503 65.7659 -17.9533 -8.13282 25.2329 3.48617 
48.28 49.4745 -7.02077 0.5746 -9.11568 -0.723468 -0.00750547 2.48423 -0.395104 -0.00166851 8.96461 -0.790165 0.00795609 10.6097 -0.791855 -5.17391 3.2245 2.52939 -0.440633 13.458 1.2935 60.0193 -5.37272 -3.36462 125.028 39.1396 -41.851 -4.5522e-006 1.8804e-006 -7.80956e-006 26.4347 53.379 -15.4757 1.198e-005 -1.31451e-005 -3 8.02892 -4.95091 0.697384 -67.8264 -8.97338 5.70604 -108.728 38.8605 21.9836 1.20944e-006 4.3584e-007 -2.6703e-006 -21.2004 51.3548 12.4894 5.79461e-006 1.63685e-005 2.99999 -8.02884 -4.95102 -0.69751 -154.647 77.6589 -28.0077 180 1.52575e-005 179.262 -159.407 77.9838 161.628 1.83986e-006 -6.62697e-007 0.662956 -10.0631 61.571 16.0393 8.13459 25.2328 -3.48692 -172.584 79.4406 -4.53329 4.57705e-006 1.05463e-005 -1.09489 52.2056 -84.4415 50.3455 -8.75397e-006 -6.43419e-007 -1.27684 14.8569 65.7688 -17.9558 -8.13282 25.2329 3.48617 
